<?xml version="1.0" encoding="UTF-8"?>
<!DOCTYPE svg PUBLIC "-//W3C//DTD SVG 1.1//EN" "http://www.w3.org/Graphics/SVG/1.1/DTD/svg11.dtd">
<!-- Creator: CorelDRAW -->
<svg xmlns="http://www.w3.org/2000/svg" xmlSpace="preserve" width="254mm" height="254mm" version="1.1" style="shape-rendering:geometricPrecision; text-rendering:geometricPrecision; image-rendering:optimizeQuality; fill-rule:evenodd; clip-rule:evenodd"
viewBox="0 0 25400 25400"
 xmlnsXlink="http://www.w3.org/1999/xlink"
 xmlnsXodm="http://www.corel.com/coreldraw/odm/2003">
 <defs>
  <style type="text/css">
    .str0 {stroke:#E8D2C5;stroke-width:20;stroke-miterlimit:22.9256}
    .fil0 {fill:#E8D2C5}
    .fil4 {fill:#D97090}
    .fil2 {fill:#C79576}
    .fil3 {fill:#BF4F99}
    .fil1 {fill:#9E4F7E}
    .fil5 {fill:#914777;fill-rule:nonzero}
  </style>
 </defs>
 <g id="Camada_x0020_1">
  <metadata id="CorelCorpID_0Corel-Layer"/>
  <path class="fil0 str0" d="M6421.93 11447.91c-18.55,1667.43 -928.03,1955.45 -971.96,2946.05 -45.09,1016.52 167.13,2252.62 661.37,3004.7 553.57,842.31 1412.1,1147.52 1682.97,1246.66 589.12,215.57 1458.94,-157.64 2519.14,-541.31 600.05,-217.12 1216.77,-550.47 1988.42,-502.81 1089.55,67.27 1503.59,625.73 2107.86,876.84 2245.3,933.02 3542.38,394.66 4617.11,-797.85 1211.93,-1344.73 805.84,-2991.04 579.67,-3640.65 -432.4,-1241.71 164.51,-2597.68 722.39,-4276.54 859.74,-2587.13 1146.89,-5101.85 -1979.32,-6045.28 -556.52,-167.91 -1250.2,-218.28 -2375,93.52 -913.41,253.15 -2226.95,1347.68 -3321.39,1517.19 -1313.01,203.41 -3064.22,-369.72 -4264.48,-164.03 -5165.49,885.31 -1942.81,4127.37 -1966.78,6283.51z"/>
  <path class="fil0 str0" d="M1482.9 20947.82c143.36,-669.36 910.74,-1064.9 1896.31,-971.62 606.55,57.44 1242.54,597.98 2025.38,488.76 1586.06,-221.28 2048.67,-871.85 2690.19,-939.84 2212.95,-234.51 3043.1,1045.13 5371.61,1476.17 599.04,110.9 4745.5,-1414.81 7872.92,-1189.13 1673.77,120.74 3342.85,2169.13 2542.33,3280.37 -1117.2,1550.81 -2830.78,1473.27 -4187.18,691.55 -4167.48,-2401.93 -2191.06,-292.77 -7027.27,117.3 -1423.19,120.69 -2948.18,-630.96 -4522.33,-842.56 -1472.98,-198.03 -2994.77,297.08 -3961.02,489.2 -1432.92,284.92 -2917.91,-1587.27 -2700.94,-2600.2z"/>
  <path class="fil1" d="M11078.98 10045.44c-37.1,-1187.05 472.96,-2142.26 964.48,-2976.91 324.59,-547.16 908.84,-1270.53 1483.82,-1520.92 370.96,-157.66 435.88,-64.92 816.1,-64.92 27.83,55.64 -83.46,37.1 64.92,46.37 -9.27,-55.64 55.65,-46.37 -64.92,-46.37l-111.28 -83.46c-296.77,-139.11 -779.01,9.27 -1057.23,157.65 -537.88,296.77 -1085.04,964.49 -1400.35,1474.55 -862.47,1381.81 -463.7,1140.69 -2485.41,1836.23 -1196.33,417.33 -1112.86,584.26 -1762.03,1131.42 83.46,-370.96 389.5,-1001.58 547.16,-1326.17 602.8,-1307.62 1326.16,-2309.2 2151.54,-3375.7 723.36,-936.66 2420.48,-2160.81 3672.46,-1511.64 454.42,231.85 574.98,621.35 723.36,908.84 27.82,46.37 18.55,27.82 46.37,74.19l37.1 55.64c-55.65,-547.15 -370.96,-825.37 -547.16,-1085.04 1845.5,-139.11 2605.96,3459.16 2513.22,4970.8 -83.46,1363.27 -454.42,1873.33 102.01,3264.41 268.95,667.72 1057.23,2030.99 1177.79,2522.5 -129.84,-92.74 -120.56,-129.83 -435.87,-352.41 -324.59,-222.57 -973.76,-908.84 -1233.43,-1214.88 -1214.88,-1437.45 222.57,-3895.03 -185.48,-5499.41 -176.2,-677 -667.72,-1279.8 -1205.61,-1641.48 -259.66,-185.48 -213.3,-92.74 -231.84,-64.92 779,556.44 1539.46,1669.3 1187.05,2698.7 -324.58,-27.82 -380.22,-166.93 -825.37,-83.46 -1233.43,241.12 -881.02,1474.55 -1168.51,1632.2 -129.84,46.37 -213.3,-27.82 -380.23,-74.19 -194.75,-64.91 -204.03,-46.37 -213.3,-287.49 -102.01,55.65 -120.56,139.11 -46.37,268.94 46.37,92.74 111.29,111.29 231.85,166.93 918.11,435.88 704.81,-370.95 936.66,-1047.94 176.2,129.83 222.57,315.31 463.69,417.32 287.5,129.83 472.97,-46.37 491.52,-315.31 -222.57,120.56 -185.48,306.04 -797.55,-194.75 -64.92,-55.65 -27.83,-27.83 -74.19,-74.19 398.77,-482.25 992.3,-296.77 1242.7,-83.47 -74.19,241.12 -621.35,1344.71 -769.74,1604.38 -333.86,556.44 -686.26,769.74 -1214.88,1131.42 -185.47,120.56 -547.16,343.13 -825.37,380.23 -547.16,92.74 -1168.51,-361.68 -1437.45,-881.02 -102.02,-194.75 -315.32,-602.81 -324.59,-853.2 -129.84,102.01 -18.55,380.23 27.82,519.34 204.03,565.7 166.93,1047.95 9.27,1632.2 -398.77,1474.55 -1409.63,2235.01 -1947.51,3106.76 -380.23,602.8 -408.05,1400.35 92.74,1845.5l-278.22 -176.2c-120.56,-92.74 -176.2,-129.84 -287.49,-222.58 -472.97,-380.23 -1020.13,-1057.22 -1289.07,-1622.93 -463.7,-936.66 -621.35,-2132.99 -417.33,-3282.96 231.85,-1251.97 677,-1901.14 1520.92,-2374.11 1122.14,-639.9 1418.91,-361.68 2494.68,-1289.07 0,-9.28 9.27,-9.28 18.55,-18.55l46.36 -37.1c9.28,0 18.55,-9.27 27.83,-18.54 -408.05,1251.97 -278.22,862.47 -435.88,2114.44 -157.65,1168.51 -658.44,1762.04 -1307.61,2541.05 -268.95,324.59 -834.65,1122.14 -1057.23,1520.92 -185.48,324.58 -287.49,584.25 -268.94,1020.13l55.64 -194.76c139.11,-695.54 658.45,-1261.25 1085.05,-1789.86 695.54,-853.2 1632.2,-1734.21 1743.49,-2976.92 37.09,-398.77 64.92,-204.02 111.29,-380.23zm324.58 8429.97c-333.86,-55.64 -1622.93,-834.65 -1864.05,-1029.4 -166.93,-139.11 -435.87,-714.09 -426.6,-1057.22 18.55,-881.02 1094.32,-1585.84 1762.04,-2689.43 472.97,-779.01 621.35,-1298.35 602.8,-2346.3l148.39 157.66c241.12,435.87 278.21,1372.53 204.02,1826.96 -278.22,1882.6 -1010.85,2559.59 -1149.96,3514.8 -129.84,936.66 352.41,1224.15 723.36,1622.93zm500.79 -6677.2c250.4,46.37 83.47,166.93 667.72,287.49 593.53,120.56 1242.7,-398.78 1734.22,-686.27 166.93,-102.01 148.38,-120.56 278.22,-204.02 -55.65,343.13 -129.84,435.87 -27.83,806.83 296.77,992.3 964.49,1168.51 1298.35,1446.72 -519.34,-27.82 -945.94,-74.19 -1511.65,-74.19 -602.8,0 -1159.23,-46.37 -1456,-602.8 -74.19,-139.11 -102.01,-296.77 -250.39,-370.96 74.19,333.86 296.76,714.09 491.52,881.02 732.63,612.08 2717.24,194.75 3338.6,612.08 -111.29,46.37 -1279.8,157.66 -1456.01,927.39 -194.75,-92.74 -241.12,-194.75 -528.61,-241.12 102.02,129.83 176.21,129.83 287.49,250.39 83.47,102.01 148.39,185.48 148.39,343.14 -213.3,213.3 -296.77,176.2 -463.7,500.79 -102.01,194.75 -204.02,584.25 -74.19,806.82 55.64,-139.1 9.27,-389.5 102.01,-621.35 231.85,-519.33 528.61,-324.58 677,-806.82 74.19,-259.67 74.19,-315.32 231.84,-463.7 1103.6,-1075.77 3570.45,-37.09 2457.59,1993.89 -176.21,315.31 -426.6,658.44 -843.93,602.8 -389.5,-37.1 -556.43,-445.15 -1001.58,-389.5 259.67,259.67 760.46,306.03 741.91,825.37 -352.41,287.49 -1928.97,1149.96 -2559.59,1103.6 -547.16,-37.1 -1316.89,-584.26 -528.61,-1548.74 102.01,-111.29 389.5,-324.59 445.14,-426.6 -231.84,92.74 -352.4,204.02 -537.88,296.76 37.09,-278.22 166.93,-343.13 287.49,-482.24 -482.24,-111.29 -408.05,547.16 -408.05,547.16 -194.75,111.29 -593.53,0 -797.56,-83.47 -797.55,-333.86 -945.93,-1177.78 -843.92,-2021.7 148.38,-1159.24 667.72,-1456 102.01,-3208.77zm2893.46 -83.47c0,-853.19 695.54,-1622.93 871.74,-2151.54 27.82,55.65 9.27,-9.27 18.55,83.47 9.27,55.64 0,18.55 0,64.91l-83.47 445.15c-37.09,204.03 -74.19,408.05 -92.74,621.35 -139.1,1502.37 222.58,2021.71 1233.43,2902.73 -46.37,0 -676.99,-185.48 -732.64,-213.3 -408.05,-213.3 -1224.15,-964.48 -1214.87,-1752.77zm-3978.5 -7484.02c0,74.19 9.27,55.64 -55.65,46.37 -148.38,83.46 -194.75,166.93 -315.31,222.57l-27.82 55.64c-9.27,0 -18.55,9.28 -18.55,18.55 0,0 -55.64,55.64 -55.64,55.64l-296.77 296.77c-64.91,102.01 -296.76,398.77 -398.77,500.79 -74.19,111.28 -157.66,194.75 -241.12,296.76 -83.47,111.29 -139.11,204.03 -213.3,306.04 -55.65,139.11 -120.56,166.93 -185.48,315.31l-389.51 593.53c-111.28,111.29 -111.28,-55.64 -370.95,46.37 -64.92,287.49 213.3,500.79 -213.3,936.66 -176.2,-306.03 -250.4,-1075.77 -649.17,-1057.22 -213.3,231.85 157.65,899.57 306.04,1140.69 111.28,176.2 333.86,398.78 -64.92,343.13 -213.3,-27.82 -482.24,-92.74 -667.72,-157.65 -55.64,-352.41 -92.74,-1400.36 -472.97,-1344.72 -454.42,74.19 194.75,1233.43 231.85,1251.98 -120.56,18.55 -398.78,-111.29 -519.34,-166.93 -259.67,-102.01 -213.3,-166.93 -268.94,-472.97 -55.65,-352.41 -74.19,-1085.05 -491.52,-983.03 -204.03,259.67 64.92,816.1 129.84,1122.14 -519.34,-231.85 -296.77,-231.85 -491.52,-714.09 -120.56,-287.49 -259.67,-677 -612.08,-602.8 -139.11,408.05 510.07,1140.68 621.35,1214.88 139.11,92.73 241.12,111.28 370.96,231.84 -306.04,27.82 -649.17,18.55 -584.26,370.96 250.4,102.01 649.18,0 936.67,-46.37 352.4,-64.92 278.21,9.27 816.1,204.02 -259.67,111.29 -1122.14,120.56 -816.1,463.7 231.84,148.38 732.63,-102.01 936.66,-204.03 176.2,-92.74 194.75,-157.65 398.78,-120.56 157.65,27.82 380.23,64.92 500.79,120.56 -306.04,129.84 -565.71,287.49 -834.65,426.6l-55.65 111.29c268.95,102.01 166.93,231.85 120.56,519.34 64.92,64.91 -102.01,111.28 111.29,27.82l37.1 -18.55 343.13 -231.85c-46.37,370.96 -454.42,1010.86 -445.15,1446.73 -111.28,222.57 -204.02,537.89 -222.57,806.83l-9.27 241.12c-92.74,139.11 -92.74,389.5 -111.29,556.43 9.27,157.66 18.55,222.58 -55.64,315.31 -55.65,102.02 -129.84,222.58 -55.65,361.69 46.37,92.74 37.1,-9.28 92.74,157.65 18.55,74.19 18.55,139.11 27.82,204.03 -9.27,231.85 -55.64,408.05 37.1,528.61l27.82 55.64c0,9.28 0,18.55 9.27,27.83 18.55,83.46 -9.27,-18.55 9.28,64.91 120.56,519.34 157.65,491.52 287.49,918.12l148.38 259.67 102.01 204.02c46.37,92.74 55.65,102.01 120.56,185.48l37.1 46.37 27.82 46.37c83.47,92.74 74.19,92.74 120.56,185.48 83.47,74.19 83.47,102.01 166.93,185.47 111.29,111.29 92.74,37.1 157.66,194.76l37.09 46.37 74.19 102.01 361.69 398.78c296.76,296.76 408.05,370.95 704.81,574.98l102.01 92.74c120.57,111.28 287.5,231.84 435.88,361.68l1122.14 658.44c315.31,166.93 908.84,454.42 1279.8,528.62 -111.29,-194.76 -426.6,-612.08 -574.99,-769.74 -593.53,-639.9 -630.62,-1196.33 -241.12,-2040.25 92.74,-194.76 361.68,-779.01 463.7,-908.84 27.82,695.54 -37.1,992.3 352.41,1511.64 324.58,417.32 676.99,556.43 1363.26,380.23 -92.74,204.02 -510.07,630.62 -74.19,1214.88 1075.77,1418.9 3431.33,-472.97 3431.33,-482.24l398.78 -287.49c74.19,-27.83 157.66,-129.84 204.03,-176.21l306.04 -278.22c139.1,-166.93 333.86,-315.31 389.5,-510.06 454.42,-788.28 204.03,-408.05 361.68,-788.28 0,0 0,-18.55 9.28,-27.82 55.64,-732.64 -129.84,-890.29 -166.93,-1437.45 -92.74,-92.74 -139.11,-306.04 -194.76,-445.15 -55.64,-157.66 -129.83,-315.31 -176.2,-445.15l-278.22 -658.44 556.44 -120.56c129.83,-102.02 361.68,-74.2 537.88,-268.95l27.82 -46.37c0,-74.19 -27.82,-55.64 46.37,-55.64l0 -27.82 0 -129.84c-74.19,-241.12 -510.06,-37.09 -686.26,37.1 -194.76,74.19 -463.7,222.57 -630.63,268.94 -157.66,-231.85 -231.85,-528.61 120.56,-630.62 92.74,-18.55 185.48,-37.1 287.49,-64.92 194.75,-37.1 380.23,-83.46 574.98,-129.83 92.74,-55.65 185.48,-55.65 296.77,-120.56 157.65,-102.02 -120.56,92.73 37.09,-27.83 9.28,-9.27 18.55,-18.54 27.82,-18.54l166.93 -166.93 -27.82 -139.11c-556.43,-111.29 -1103.59,296.76 -1520.91,463.69 18.54,-157.65 55.64,-315.31 102.01,-472.97 27.82,-120.56 83.46,-380.23 185.48,-445.14 250.39,-120.56 1418.9,83.46 1353.98,-398.78 -46.37,-408.05 -1094.32,55.64 -1279.79,139.11 46.37,-166.93 148.38,-333.86 222.57,-482.24 129.83,-259.67 148.38,-213.3 500.79,-241.13 398.78,-27.82 1112.87,18.55 1020.13,-435.87 -315.31,-139.11 -797.56,0 -1131.42,83.47 278.22,-500.79 398.78,-333.86 788.28,-454.42 1112.87,-361.69 658.45,-927.39 -287.49,-287.49 -547.16,370.95 -408.05,445.14 -621.35,602.8 0,-324.59 37.1,-677 -324.58,-612.08 -213.3,556.44 259.67,955.21 -296.77,1715.67 -102.01,-222.57 -27.82,-574.98 -194.75,-881.02l-222.57 0c-157.66,639.9 333.86,1029.4 222.57,1437.45 -74.19,250.4 -83.46,333.86 -166.93,445.15 -37.09,-176.2 -111.29,-343.13 -176.2,-491.51 -55.65,-157.66 -166.93,-324.59 -213.3,-445.15 -111.29,-287.49 92.74,-871.75 83.46,-1187.06 74.19,-361.68 139.11,-1149.96 74.19,-1465.27l-55.64 -528.62 64.92 -27.82c176.2,9.28 389.5,-18.54 250.39,-241.12 -64.91,-111.29 -129.83,-46.37 -278.21,-129.83l-92.74 -92.74c250.39,0 241.12,64.92 454.42,55.64l278.21 74.19 287.49 -46.37c55.65,-176.2 9.28,-241.12 -120.56,-324.58 -157.65,-92.74 -166.93,-55.65 -343.13,-18.55l-46.37 -9.27c-83.46,64.91 -204.02,83.46 -333.86,102.01 -46.37,9.27 -37.1,18.55 -92.74,9.27 -92.74,-9.27 -46.37,-9.27 -92.74,-46.37l102.02 -64.91c111.28,-102.02 204.02,-111.29 166.93,-343.14 -74.2,-46.37 -111.29,-64.92 -231.85,-64.92l-27.82 18.55c-64.92,64.92 9.27,27.82 -102.02,83.47 -9.27,0 -92.74,27.82 -83.46,27.82l-139.11 -343.14c-37.1,-268.94 -287.49,-751.18 -435.87,-1001.58 -176.21,-315.31 176.2,-333.86 -185.48,-547.15 -139.11,-83.47 -139.11,-27.83 -250.4,-102.02 -37.09,-37.09 -287.49,-287.49 -306.03,-324.58 268.94,0 936.66,816.1 1224.15,213.3 -166.93,-482.25 -565.71,-185.48 -918.12,-389.51 213.3,-370.95 519.34,-92.74 964.49,46.37 231.85,74.19 649.17,120.56 565.71,-213.3 -139.11,-213.3 -612.08,-102.01 -964.49,-204.02 64.92,-139.11 139.11,-176.21 278.22,-250.4 306.04,46.37 621.35,306.04 1020.13,268.94 111.28,-92.73 185.47,-204.02 129.83,-398.77 -306.04,-92.74 -435.87,111.28 -779.01,-74.19 519.34,-454.42 1270.53,-250.4 1168.51,-871.75 -574.98,-194.75 -732.63,556.43 -1316.89,695.54 27.82,-324.58 510.07,-853.2 -27.82,-908.84 -166.93,343.14 -259.67,723.36 -315.31,1168.51 -157.66,46.37 -157.66,92.74 -296.77,120.56 74.19,-333.86 500.79,-1029.4 -46.37,-1112.86 -139.1,157.65 -213.3,881.01 -259.66,1205.6 -27.83,204.03 -9.28,241.12 -204.03,287.49 -176.2,-361.68 426.6,-788.28 0,-1085.04 -630.62,-37.1 -241.12,1029.4 -361.68,1363.26 -129.84,0 -250.4,-83.47 -343.14,-148.38 37.1,-426.6 491.52,-881.02 0,-1066.5 -389.5,222.57 -166.93,704.81 -352.4,983.03 -222.58,-83.46 -18.55,-231.85 -222.58,-324.59 -231.84,-74.19 -278.21,102.02 -333.86,306.04 -983.03,-547.16 -2559.59,18.55 -3162.39,602.81z"/>
  <path class="fil2" d="M14343.38 5482.69c120.57,0 55.65,-9.27 64.92,46.37l92.74 27.82c139.11,55.65 74.19,55.65 157.66,166.93 18.54,-27.82 -27.82,-120.56 231.84,64.92 537.89,361.68 1029.41,964.48 1205.61,1641.48 408.05,1604.38 -1029.4,4061.96 185.48,5499.41 259.67,306.04 908.84,992.31 1233.43,1214.88 315.31,222.58 306.03,259.67 435.87,352.41 -120.56,-491.51 -908.84,-1854.78 -1177.79,-2522.5 -556.43,-1391.08 -185.47,-1901.14 -102.01,-3264.41 92.74,-1511.64 -667.72,-5109.91 -2513.22,-4970.8 176.2,259.67 491.51,537.89 547.16,1085.04l-37.1 -55.64c-27.82,-46.37 -18.55,-27.82 -46.37,-74.19 -148.38,-287.49 -268.94,-676.99 -723.36,-908.84 -1251.98,-649.17 -2949.1,574.98 -3672.46,1511.64 -825.38,1066.5 -1548.74,2068.08 -2151.54,3375.7 -157.66,324.59 -463.7,955.21 -547.16,1326.17 649.17,-547.16 565.7,-714.09 1762.03,-1131.42 2021.71,-695.54 1622.94,-454.42 2485.41,-1836.23 315.31,-510.06 862.47,-1177.78 1400.35,-1474.55 278.22,-148.38 760.46,-296.76 1057.23,-157.65l111.28 83.46z"/>
  <path class="fil2" d="M11134.62 10128.91l-55.64 -83.47c-46.37,176.21 -74.2,-18.54 -111.29,380.23 -111.29,1242.71 -1047.95,2123.72 -1743.49,2976.92 -426.6,528.61 -945.94,1094.32 -1085.05,1789.86l-55.64 194.76c-18.55,-435.88 83.46,-695.55 268.94,-1020.13 222.58,-398.78 788.28,-1196.33 1057.23,-1520.92 649.17,-779.01 1149.96,-1372.54 1307.61,-2541.05 157.66,-1251.97 27.83,-862.47 435.88,-2114.44 -9.28,9.27 -18.55,18.54 -27.83,18.54l-46.36 37.1c-9.28,9.27 -18.55,9.27 -18.55,18.55 -1075.77,927.39 -1372.54,649.17 -2494.68,1289.07 -843.92,472.97 -1289.07,1122.14 -1520.92,2374.11 -204.02,1149.97 -46.37,2346.3 417.33,3282.96 268.94,565.71 816.1,1242.7 1289.07,1622.93 111.29,92.74 166.93,129.84 287.49,222.58l278.22 176.2c-500.79,-445.15 -472.97,-1242.7 -92.74,-1845.5 537.88,-871.75 1548.74,-1632.21 1947.51,-3106.76 157.66,-584.25 194.76,-1066.5 -9.27,-1632.2 -46.37,-139.11 -157.66,-417.33 -27.82,-519.34z"/>
  <path class="fil2" d="M11403.56 18475.41c-370.95,-398.78 -853.2,-686.27 -723.36,-1622.93 139.11,-955.21 871.74,-1632.2 1149.96,-3514.8 74.19,-454.43 37.1,-1391.09 -204.02,-1826.96l-148.39 -157.66c18.55,1047.95 -129.83,1567.29 -602.8,2346.3 -667.72,1103.59 -1743.49,1808.41 -1762.04,2689.43 -9.27,343.13 259.67,918.11 426.6,1057.22 241.12,194.75 1530.19,973.76 1864.05,1029.4z"/>
  <path class="fil3" d="M18896.86 11455.08l-166.93 166.93c-9.27,0 -18.54,9.27 -27.82,18.54 -157.65,120.56 120.56,-74.19 -37.09,27.83 -111.29,64.91 -204.03,64.91 -296.77,120.56 111.29,64.91 222.58,343.13 370.96,435.87 18.55,120.56 18.55,27.82 -37.1,83.46l0 129.84 102.02 -166.93c92.73,157.65 676.99,769.73 816.1,862.47 -37.1,268.94 -426.6,1326.17 -547.16,1493.1 -120.56,-1131.42 -92.74,-1066.5 -445.15,-2058.81l27.82 -46.37 46.37 -55.64c-74.19,0 -46.37,-18.55 -46.37,55.64l-27.82 46.37c-176.2,194.75 -408.05,166.93 -537.88,268.95l102.01 0c37.09,593.52 268.94,1149.96 435.87,1678.57 194.75,574.98 278.22,723.36 -157.65,1326.17l-120.56 102.01c-9.28,9.27 -9.28,27.82 -9.28,27.82 -157.65,380.23 92.74,0 -361.68,788.28 241.12,-55.64 565.71,-55.64 834.65,-120.56 528.61,-120.56 862.47,-287.49 1298.34,-565.71 185.48,-129.83 454.42,-231.84 408.06,-528.61 -259.67,-185.48 -621.36,74.19 -1085.05,287.49 -361.68,166.93 -779.01,398.78 -1085.04,519.34l584.25 -992.31c129.83,-222.57 185.48,-102.01 639.9,-287.49 491.51,-194.75 1372.53,-686.26 1214.88,-1279.79 -500.79,-129.84 -1140.69,667.72 -1493.1,834.65l389.51 -1085.05c18.54,-64.92 27.82,-111.29 55.64,-176.2 9.27,-18.55 18.55,-64.92 27.82,-83.47 9.27,-9.27 9.27,-18.55 18.55,-27.82 111.28,-213.3 1047.95,-185.48 1029.4,-723.36 -27.82,-454.42 -862.47,278.21 -927.39,306.04 74.19,-445.15 74.19,-936.67 83.47,-1400.36 9.27,-324.59 222.57,-1233.43 -250.4,-1187.06 -361.68,37.1 -194.75,908.84 -120.56,1196.33 102.01,370.96 306.04,862.47 120.56,1270.52 -324.59,-389.5 -352.41,-676.99 -788.28,-964.48l-139.11 -102.01c-9.27,0 -18.55,-9.28 -27.82,-18.55 55.64,-64.92 83.47,-83.47 129.83,-176.2z"/>
  <path class="fil4" d="M17431.59 6623.38c176.2,-37.1 185.48,-74.19 343.13,18.55 129.84,83.46 176.21,148.38 120.56,324.58l-287.49 46.37c37.1,157.66 -27.82,268.95 -157.65,435.88l-120.56 111.28 0 -621.35c-213.3,9.28 -204.03,-55.64 -454.42,-55.64l92.74 92.74c148.38,83.46 213.3,18.54 278.21,129.83 139.11,222.58 -74.19,250.4 -250.39,241.12l120.56 64.92 -55.65 389.5c-64.91,148.39 -18.54,46.37 -74.19,102.02 64.92,315.31 0,1103.59 -74.19,1465.27 148.38,-213.3 287.49,-120.56 241.12,-380.23 -46.37,-250.39 -148.38,-46.37 -129.83,-519.34 1279.8,426.6 1289.07,-157.65 686.27,-306.03 -222.58,-55.65 -463.7,9.27 -695.55,27.82 83.47,-306.04 454.43,-361.68 769.74,-398.78 259.67,-27.82 816.1,-55.64 1020.13,-157.66 176.2,-92.74 306.03,-463.69 -519.34,-315.31 -315.31,55.64 -519.34,259.67 -806.83,324.59 398.78,-602.81 148.38,-408.05 890.29,-797.56 287.49,-157.65 992.31,-472.97 537.89,-843.92 -324.59,-9.28 -686.27,482.24 -890.29,639.9 27.82,-139.11 92.73,-361.68 139.1,-510.07 55.65,-166.93 111.29,-194.75 389.51,-306.04 278.21,-111.28 955.21,-204.02 602.8,-556.43 -287.49,-139.11 -751.19,268.94 -862.47,389.5 0,-389.5 881.02,-1149.96 426.6,-1520.91 -287.49,64.91 -361.68,537.88 -482.25,834.65 -74.19,-213.3 -46.36,-278.22 -166.93,-472.97 -482.24,-46.37 -250.39,500.79 -83.46,973.76 129.83,361.68 83.46,843.92 -129.83,1149.96 -18.55,-426.6 0,-788.28 -92.74,-1205.61 -111.29,-472.96 -194.76,-788.28 -537.89,-686.26 -102.01,287.49 83.47,574.98 166.93,862.47 83.47,287.49 157.66,621.35 194.75,936.66 -9.27,9.27 -18.55,0 -27.82,18.55 -9.27,27.82 -27.82,18.55 -46.37,27.82 -64.92,37.1 -18.55,0 -74.19,46.37z"/>
  <path class="fil4" d="M9131.46 17668.58l-333.86 -129.83c0,0 55.64,-139.11 213.3,-37.1 64.92,37.1 83.46,92.74 120.56,166.93zm-871.75 -667.72c-139.11,9.28 -185.47,46.37 -287.49,9.28l-27.82 -176.21c259.67,0 213.3,9.28 315.31,166.93zm-417.32 -658.44l37.09 46.37 -37.09 -46.37c-64.92,-157.66 -46.37,-83.47 -157.66,-194.76 -83.46,-83.46 -83.46,-111.28 -166.93,-185.47l-714.09 -102.02c-185.48,222.58 -129.83,296.77 -46.37,398.78 102.02,139.11 166.93,194.75 213.3,417.33 -259.67,-64.92 -231.84,-129.84 -306.04,-408.06 -27.82,-120.56 -92.73,-306.03 -120.56,-500.79l788.28 -83.46 37.1 46.37 27.82 46.37 -27.82 -46.37 -37.1 -46.37c-64.91,-83.47 -74.19,-92.74 -120.56,-185.48l-102.01 -204.02c0,9.27 27.82,157.65 -259.67,64.91 -268.94,-92.74 -352.41,-241.12 -602.8,129.84 -278.22,426.6 120.56,510.06 194.75,899.57l-111.29 64.91c0,0 -18.54,9.28 -18.54,9.28l92.74 129.83c-296.77,166.93 -908.85,-18.55 -714.09,463.7 343.13,102.01 816.1,-315.32 983.03,-324.59 129.83,0 74.19,18.55 176.2,37.09 185.48,37.1 -92.74,-37.09 92.74,0l102.01 166.93c-259.67,157.66 -1103.59,111.29 -881.02,510.07 166.93,148.38 843.93,-287.49 1066.5,-343.14 259.67,-64.91 250.4,74.2 426.6,-18.54l-157.66 -74.19c-120.56,-92.74 -74.19,-74.2 -120.56,-185.48l287.49 18.55c157.66,268.94 37.1,194.75 102.02,315.31 37.09,74.19 37.09,-64.92 64.91,120.56 -166.93,166.93 -658.44,213.3 -908.84,259.67 -315.31,602.8 537.89,231.84 779.01,111.28 463.69,-231.84 278.22,-213.3 779.01,-74.19 -120.56,176.21 -361.69,157.66 -574.98,194.75 -185.48,37.1 -482.25,139.11 -324.59,306.04 157.66,204.03 797.55,-176.2 983.03,-259.67 241.12,-102.01 278.22,-46.37 491.52,37.1 250.39,92.74 324.58,204.03 500.79,64.92 -148.38,-129.84 -315.31,-250.4 -435.88,-361.68l-102.01 -92.74c-296.76,-204.03 -408.05,-278.22 -704.81,-574.98l-361.69 -398.78 -250.39 -213.3c0,-9.28 -18.55,-9.28 -18.55,-18.55 129.84,27.82 46.37,9.27 92.74,37.1l64.92 46.37zm-435.87 -74.2c-46.37,83.47 -27.83,102.02 -92.74,176.21 -37.1,37.09 -102.02,102.01 -139.11,139.11l-74.19 -324.59 306.04 9.27z"/>
  <path class="fil4" d="M6961.37 15034.8c-129.84,-426.6 -166.93,-398.78 -287.49,-918.12 -18.55,-83.46 9.27,18.55 -9.28,-64.91 -9.27,-9.28 -9.27,-18.55 -9.27,-27.83l-27.82 -55.64 -37.1 157.66c-120.56,-55.65 -204.02,-166.93 -259.67,-315.32l259.67 -370.95c-9.27,-64.92 -9.27,-129.84 -27.82,-204.03 -55.64,-166.93 -46.37,-64.91 -92.74,-157.65 -74.19,-139.11 0,-259.67 55.65,-361.69 -445.15,148.39 -185.48,612.08 -361.69,862.48 -296.76,-213.3 -111.28,-435.88 -64.91,-574.98 37.09,-111.29 139.11,-649.18 204.02,-704.82l-194.75 -157.66c0,-9.27 -9.27,-9.27 -18.55,-18.54 -482.24,231.84 -18.54,667.72 -315.31,936.66 -296.76,-241.12 -166.93,-324.59 -46.37,-704.82 83.47,-268.94 185.48,-676.99 -241.12,-621.35 -204.03,241.12 83.47,426.6 -102.01,741.91 -287.49,-268.94 -463.7,-1372.53 -806.83,-1020.12 -176.21,176.2 157.65,510.06 241.12,593.52 194.75,204.03 306.04,176.21 408.05,556.44 -352.41,0 -389.5,-222.58 -769.73,-148.38l-74.19 176.2c176.2,176.2 779,259.67 1085.04,287.49l129.84 278.22c-296.77,-64.92 -1020.13,-445.15 -1020.13,74.19 166.93,111.29 491.51,120.56 732.64,148.38 204.02,27.82 704.81,46.37 621.35,231.85 -9.28,0 -27.82,0 -27.82,9.27 -37.1,74.19 -380.23,-27.82 -463.7,-64.92 -241.12,-92.73 -315.31,-64.91 -482.24,55.65 -37.1,639.9 983.03,222.57 1205.6,306.04l296.77 241.12c0,9.27 18.55,9.27 27.82,18.55l-55.64 129.83c-426.6,129.83 -1177.79,-565.71 -1316.9,-27.82 27.83,306.04 1057.23,296.76 1353.99,259.67 157.66,-18.55 268.95,0 315.31,166.93 -204.02,157.65 -1103.59,-231.85 -1066.49,185.47 27.82,343.14 983.03,139.11 1242.7,102.02z"/>
  <path class="fil3" d="M10448.35 4499.66c-231.85,-268.94 -55.64,-1335.44 -463.69,-1613.66 -417.33,18.55 -380.23,612.08 -315.32,992.31 83.47,463.69 222.58,686.27 380.23,1047.95l296.77 -296.77c0,0 55.64,-55.64 55.64,-55.64 0,-9.27 9.28,-18.55 18.55,-18.55l27.82 -55.64c120.56,-55.64 166.93,-139.11 315.31,-222.57 64.92,9.27 55.65,27.82 55.65,-46.37l-55.65 46.37c-27.82,-55.65 -55.64,55.64 -9.27,-129.84l185.48 -398.78c92.74,-194.75 166.93,-352.4 241.12,-528.61l1502.37 -64.92c64.92,-9.27 166.93,-18.54 231.85,-37.09 157.65,-55.64 92.73,-18.55 157.65,-129.84 74.19,-287.49 -426.6,-343.13 -714.09,-333.86 -352.41,9.28 -612.07,120.57 -927.39,166.93 92.74,-176.2 287.49,-389.5 417.33,-500.79 129.83,-102.01 1845.5,-983.03 1242.7,-1316.89 -352.41,-204.02 -704.82,472.97 -1001.58,779.01 -176.2,166.93 -259.67,315.31 -445.15,491.52 -83.46,74.19 -380.23,472.96 -435.87,510.06 -92.74,-1437.45 -741.91,-881.02 -472.97,-241.12 343.14,806.83 463.7,176.2 -18.55,1261.25 -64.91,166.93 -241.12,528.61 -268.94,695.54z"/>
  <path class="fil3" d="M6312.2 9359.18l-27.83 46.37 -18.54 64.91 -46.37 55.65c74.19,0 55.64,18.54 46.37,-55.65l18.54 -64.91 27.83 -46.37 102.01 -46.37c-37.1,241.12 -18.55,268.94 18.55,528.61 -74.19,64.92 111.28,64.92 -111.29,46.37 120.56,55.64 139.11,-9.28 74.19,148.38 -102.01,-55.64 -64.92,-27.82 -120.56,-139.11 -83.46,-83.46 -83.46,-83.46 -111.29,-213.3 -74.19,-111.28 -139.1,-658.44 -417.32,-602.8 -259.67,55.64 -92.74,454.42 -18.55,574.98 157.66,231.85 287.49,129.84 333.86,389.5 -751.18,-148.38 -964.48,315.32 -241.12,454.43 204.03,37.09 574.98,18.54 676.99,139.1 64.92,83.47 241.13,463.7 259.67,584.26 -370.95,-27.82 -927.39,-667.72 -1159.23,-55.64 111.28,435.87 630.62,361.68 1103.59,435.87 18.55,-268.94 111.29,-584.26 222.57,-806.83 -18.54,9.27 -92.74,64.92 -92.74,64.92 -92.73,-370.96 -176.2,-241.12 -83.46,-630.63 111.29,-445.14 0,-389.5 241.12,-630.62l37.1 -18.55 -37.1 18.55c-213.3,83.46 -46.37,37.09 -111.29,-27.82 46.37,-287.49 148.39,-417.33 -120.56,-519.34l55.65 -111.29c-92.74,55.65 -222.58,102.01 -287.49,166.93 -18.55,18.55 -185.48,213.3 -213.3,250.4z"/>
  <path class="fil2" d="M14797.81 11714.74c-9.28,788.29 806.82,1539.47 1214.87,1752.77 55.65,27.82 686.27,213.3 732.64,213.3 -1010.85,-881.02 -1372.53,-1400.36 -1233.43,-2902.73 18.55,-213.3 55.65,-417.32 92.74,-621.35l83.47 -445.15c0,-46.36 9.27,-9.27 0,-64.91 -9.28,-92.74 9.27,-27.82 -18.55,-83.47 -176.2,528.61 -871.74,1298.35 -871.74,2151.54z"/>
  <path class="fil4" d="M4401.77 15442.85c-408.05,27.82 -426.59,-380.23 -806.82,-222.57 0,389.5 389.5,268.94 612.07,352.4 -157.65,139.11 -333.86,157.66 -278.21,445.15 231.84,64.92 435.87,-111.29 593.53,-222.57 194.75,-129.84 408.05,0 584.25,120.56 -120.56,120.56 -157.66,83.46 -343.13,111.28 -148.39,27.83 -231.85,92.74 -315.32,148.39 -9.27,166.93 -27.82,278.21 157.66,296.76 361.68,37.1 482.24,-380.23 955.21,-417.32 -64.92,-148.39 -18.55,148.38 -213.3,-565.71 -268.94,-955.21 -602.8,-408.05 -491.51,-204.03 83.46,157.66 231.84,176.21 268.94,435.88 -565.71,-92.74 -528.61,-686.27 -825.38,-1001.58 -222.57,9.27 -296.76,157.65 -194.75,370.95 102.01,222.57 185.48,129.84 296.76,352.41z"/>
  <path class="fil3" d="M17589.25 17269.8l-306.04 278.22c472.97,55.64 760.46,129.84 1270.52,92.74 296.77,-27.82 973.76,-111.29 1047.95,-333.86 231.85,-714.09 -1919.69,-46.37 -2012.43,-37.1z"/>
  <path class="fil3" d="M16680.4 18011.72c259.67,-148.39 333.86,37.09 936.67,287.49 296.76,129.83 741.91,324.58 1057.22,157.65 111.29,-380.23 -241.12,-435.87 -584.25,-519.34 -157.66,-37.09 -324.59,-64.91 -491.52,-92.73l-463.69 -92.74c-9.28,0 -18.55,-9.28 -27.83,-9.28 -9.27,-9.27 -18.54,-9.27 -27.82,-18.54l-398.78 287.49z"/>
  <path class="fil3" d="M9196.38 6029.85c74.19,-102.01 129.83,-194.75 213.3,-306.04 83.46,-102.01 166.93,-185.48 241.12,-296.76l-74.19 74.19c-102.02,-250.4 -194.76,-491.52 -287.5,-732.64 -37.09,-92.74 -102.01,-287.49 -148.38,-361.68 -83.46,-120.56 -278.21,-185.48 -352.41,-9.27 -166.93,370.95 315.32,1335.44 408.06,1632.2z"/>
  <path class="fil4" d="M16902.98 6206.05c120.56,0 157.65,18.55 231.85,64.92 37.09,231.85 -55.65,241.12 -166.93,343.14 92.73,-46.37 83.46,0 83.46,102.01 129.84,-18.55 250.4,-37.1 333.86,-102.01 -157.66,27.82 -74.19,-157.66 -166.93,-547.16 -92.74,-408.06 -185.48,-630.63 -426.6,-964.49 -111.29,-166.93 -222.57,-250.39 -482.24,-194.75 -157.66,510.06 454.42,676.99 593.53,1298.34z"/>
  <path class="fil4" d="M5829.95 16036.38l-204.02 83.46c120.56,222.58 185.48,157.66 -231.85,204.03 -213.3,18.55 -361.68,83.46 -343.13,324.58 268.94,176.21 528.61,-37.09 853.2,-213.3 166.93,-83.46 194.75,-111.28 296.76,9.28 0,-194.75 -27.82,-27.82 -92.74,-241.12 -18.55,-64.92 -46.37,-231.85 -64.92,-315.31 -37.09,-157.66 -92.74,-472.97 -157.65,-584.26 -139.11,-222.57 -343.14,-74.19 -315.31,176.2 18.54,157.66 194.75,296.77 259.66,556.44z"/>
  <path class="fil1" d="M14528.86 16908.12c-37.09,-148.38 -92.74,-250.39 -185.48,-333.86 -37.09,-27.82 -111.28,-64.91 -157.65,-74.19 -111.29,-9.27 -148.38,9.28 -213.3,55.65 500.79,64.91 408.05,361.68 324.59,816.1 157.65,-55.65 194.75,-139.11 333.86,-231.85 111.28,-74.19 231.84,-129.83 380.22,-166.93 398.78,-111.29 667.72,18.55 945.94,-27.82 -166.93,-129.84 -370.95,-250.4 -676.99,-259.67 -389.51,-9.27 -472.97,111.29 -751.19,222.57z"/>
  <path class="fil1" d="M12572.07 7346.74c83.47,74.19 704.82,204.03 890.3,268.95 519.33,176.2 500.79,278.21 667.72,491.51 287.49,-472.97 -1085.05,-1103.59 -1558.02,-760.46z"/>
  <path class="fil1" d="M13582.93 8802.74c18.54,-92.74 -18.55,-417.32 -55.65,-547.16 -129.83,46.37 -27.82,-37.09 -139.11,204.03l-55.64 111.29c-185.48,-55.65 -324.59,-139.11 -463.69,-250.4 -343.14,-259.67 -194.76,-185.48 -343.14,-343.13 -37.09,46.37 -74.19,-37.1 -27.82,157.65 83.47,352.41 639.9,779.01 1085.05,667.72z"/>
  <path class="fil3" d="M8621.39 6938.69l389.51 -593.53c-185.48,-37.09 -120.56,-64.91 -268.94,-176.2 -148.39,-102.01 -231.85,-92.74 -389.51,-55.64 -148.38,370.95 194.75,519.33 268.94,825.37z"/>
  <path class="fil1" d="M13805.5 10898.64c-37.1,-324.58 -250.4,-324.58 -389.5,-361.68 -139.11,-46.37 -55.65,-18.55 -185.48,-92.74 -148.38,-92.74 -621.35,-157.65 -816.1,-204.02 102.01,222.57 398.77,231.84 621.35,361.68 157.65,83.46 139.1,176.2 278.21,222.57 64.92,18.55 380.23,55.64 491.52,74.19z"/>
  <path class="fil1" d="M16021.96 15646.87c148.38,-343.13 -129.84,-751.18 -445.15,-510.06 102.01,64.92 204.03,37.1 250.4,166.93 37.09,120.56 -18.55,222.57 -74.19,306.04 -176.21,231.85 -259.67,194.75 -463.7,343.13 259.67,231.85 649.17,-129.83 732.64,-306.04z"/>
  <path class="fil3" d="M20102.47 7791.89c-9.27,176.2 -18.55,315.31 9.27,491.52 9.28,46.37 18.55,148.38 37.1,185.47 92.74,222.58 9.27,83.47 139.11,148.39l-9.28 -621.35c-139.1,-102.02 -27.82,-139.11 -92.73,-343.14l-83.47 139.11zm176.2 -120.56c-194.75,-111.29 -18.54,111.29 -92.73,-46.37 -9.28,-18.55 -27.83,-9.27 -37.1,-27.82 55.64,129.83 148.38,278.21 148.38,389.5 18.55,139.11 37.1,157.66 92.74,287.49 18.55,37.1 37.1,102.01 55.64,139.11 92.74,157.66 -18.54,64.92 129.84,111.29 129.83,-287.49 -185.48,-686.27 -296.77,-853.2z"/>
  <path class="fil3" d="M6089.62 12122.8c9.28,9.27 18.55,9.27 18.55,18.54l194.75 157.66 278.22 102.01c18.55,-166.93 18.55,-417.32 111.29,-556.43 -166.93,-37.1 -287.49,-120.56 -463.7,-64.92 -148.38,46.37 -204.02,166.93 -139.11,343.14z"/>
  <path class="fil3" d="M7174.67 5686.72c-18.55,268.94 -92.74,751.18 166.93,890.29l0 -602.8c111.28,204.02 111.28,417.32 324.58,528.61 9.28,-241.12 -120.56,-649.17 -268.94,-751.19 -129.83,-64.91 -102.01,0 -129.83,-213.3l-74.19 120.56c-9.28,-9.27 -18.55,18.55 -18.55,27.83z"/>
  <path class="fil1" d="M13582.93 11056.3c-936.67,-139.11 -908.85,-445.15 -1168.51,-528.61 18.54,602.8 936.66,890.29 1168.51,528.61z"/>
  <path class="fil3" d="M20056.1 7726.97c37.1,-102.01 -18.55,-18.55 92.74,-157.65l-148.38 27.82c-213.3,0 -649.17,166.93 -723.37,417.32 241.13,-27.82 389.51,-139.11 584.26,-250.39 -176.2,157.65 -370.96,259.67 -417.33,519.34 278.22,-18.55 556.44,-343.14 612.08,-556.44z"/>
  <path class="fil3" d="M7425.06 5445.6l-92.74 74.19 389.51 55.64c166.93,0 370.95,27.82 500.79,-55.64 -139.11,-185.48 -556.44,-102.02 -797.56,-74.19zm27.82 213.29c92.74,-27.82 74.2,-46.36 74.2,46.37 83.46,92.74 361.68,176.21 472.96,185.48 55.65,0 46.37,0 111.29,-9.27 74.19,-27.82 46.37,-18.55 92.74,-55.65 -120.56,-157.65 -445.15,-231.84 -639.9,-259.66 -139.11,-27.83 -176.2,-27.83 -306.04,-83.47 9.28,9.27 27.82,9.27 37.1,27.82l157.65 148.38z"/>
  <path class="fil3" d="M6905.73 5603.25c-148.39,9.28 -222.58,64.92 -333.86,120.56 -166.93,92.74 -204.03,83.47 -222.58,259.67 129.84,-18.55 278.22,-74.19 361.68,-157.66 46.37,-37.09 27.83,-55.64 139.11,-55.64l18.55 0 92.74 -92.74c9.27,0 18.55,-9.27 18.55,-9.27 46.37,-37.1 -102.02,55.64 46.37,-27.82l74.19 -46.37c-148.39,46.37 -111.29,18.55 -120.56,194.75l-102.02 9.27c-46.37,64.92 74.19,18.55 -92.74,74.19l-46.36 27.83 -46.37 27.82 -37.1 37.09 -27.82 46.37 -27.82 46.37 -18.55 55.65c18.55,92.73 37.09,64.91 -55.64,64.91 -37.1,139.11 0,37.1 27.82,74.19 268.94,-64.91 510.06,-324.58 584.25,-574.98 0,-18.55 9.28,-27.82 9.28,-37.09l55.64 -120.56c-213.3,92.74 -102.01,27.82 -296.76,83.46z"/>
  <path class="fil3" d="M6998.46 5464.14c18.55,0 102.02,9.28 102.02,9.28 139.11,-46.37 -18.55,64.91 102.01,-64.92 -55.64,-111.29 -139.11,-231.85 -213.3,-324.59 -111.29,-120.56 -166.93,-194.75 -380.23,-250.39 37.1,166.93 9.27,111.29 129.84,231.85l148.38 176.2c-129.84,-46.37 -74.19,-37.1 -222.58,-111.29 -120.56,-55.64 -120.56,-64.91 -268.94,-46.37 64.92,213.3 324.59,389.51 602.8,380.23z"/>
  <path class="fil3" d="M19907.72 7504.4l166.93 37.09c46.37,-74.19 27.82,9.28 27.82,-111.28 -46.37,-231.85 -315.31,-500.79 -556.43,-565.71 46.37,241.12 231.84,380.23 389.5,500.79 -176.2,-129.83 -333.86,-231.85 -593.53,-268.94 55.64,241.12 296.77,370.95 565.71,408.05z"/>
  <path class="fil3" d="M7387.97 5167.38c46.37,-157.66 111.28,-333.86 120.56,-528.61 -74.19,27.82 -129.84,-27.82 -241.12,306.04 -46.37,157.65 -64.92,324.58 -74.19,491.51 176.2,-64.92 83.46,-129.83 194.75,-268.94zm278.21 -74.19c92.74,-74.19 120.56,-176.21 129.84,-324.59 -185.48,18.55 -324.59,231.85 -380.23,398.78 -83.47,92.74 -148.38,194.75 -194.75,315.31 9.27,0 27.82,-18.55 37.09,-9.27 9.28,9.27 37.1,-9.28 46.37,-9.28 157.66,-92.74 18.55,0 166.93,-157.65 120.56,-129.84 74.19,-148.39 194.75,-213.3z"/>
  <path class="fil3" d="M20325.04 7495.13c46.37,92.73 -102.01,92.73 55.65,74.19l-176.21 37.09c9.28,0 27.82,-9.27 27.82,0 268.95,83.47 -18.54,-92.74 92.74,64.92 176.21,129.83 565.71,333.86 816.11,204.02 -37.1,-83.46 -55.65,-92.73 -176.21,-139.1 -111.28,-46.37 -157.65,-64.92 -278.21,-64.92 -166.93,-18.55 -148.39,9.27 -306.04,-102.01 204.02,-27.83 491.51,0 714.09,-9.28 83.46,-9.27 74.19,74.19 64.91,-46.37 -259.67,-92.74 -454.42,-83.46 -741.91,-46.37 0,92.74 18.55,55.65 -92.74,27.83z"/>
  <path class="fil4" d="M20278.67 7671.33l46.37 0c-111.28,-157.66 176.21,18.55 -92.74,-64.92 0,-9.27 -18.54,0 -27.82,0l176.21 -37.09c-157.66,18.54 -9.28,18.54 -55.65,-74.19 111.29,27.82 92.74,64.91 92.74,-27.83l-74.19 0 -18.55 27.83 -27.82 0c-18.55,-18.55 -268.94,92.73 -9.27,-194.76 120.56,-120.56 64.92,-9.27 102.01,-139.1l-46.37 -27.83c-83.46,55.65 -9.27,-46.37 -64.92,83.47 -92.73,213.3 55.65,92.74 -139.1,204.02l46.37 -278.21 -83.47 287.49c0,120.56 18.55,37.09 -27.82,111.28l-166.93 -37.09c9.27,9.27 46.37,37.09 46.37,46.37 9.27,0 18.55,18.55 27.82,18.55 9.27,9.27 18.55,18.54 18.55,27.82l148.38 -27.82c-111.29,139.1 -55.64,55.64 -92.74,157.65 64.92,37.1 46.37,-55.64 46.37,64.92l83.47 -139.11c64.91,204.03 -46.37,241.12 92.73,343.14l18.55 -9.28c0,-111.29 -92.74,-259.67 -148.38,-389.5 9.27,18.55 27.82,9.27 37.1,27.82 74.19,157.66 -102.02,-64.92 92.73,46.37zm408.06 0c74.19,-64.92 -111.29,-46.37 120.56,-55.64 129.83,0 231.84,27.82 287.49,-55.65 -222.58,9.28 -510.07,-18.55 -714.09,9.28 157.65,111.28 139.11,83.46 306.04,102.01z"/>
  <path class="fil3" d="M20389.96 7161.27c-37.09,129.83 18.55,18.54 -102.01,139.1 -259.67,287.49 -9.28,176.21 9.27,194.76l46.37 -27.83c139.11,-166.93 370.96,-315.31 389.5,-667.72 -166.93,37.1 -296.76,222.58 -343.13,361.69z"/>
  <path class="fil3" d="M18182.78 14506.19c-9.28,-194.76 -27.83,-389.51 -83.47,-547.16 -55.64,-204.03 -83.46,-296.77 -287.49,-343.14 46.37,129.84 120.56,287.49 176.2,445.15 55.65,139.11 102.02,352.41 194.76,445.15z"/>
  <path class="fil1" d="M6312.2 9359.18l-27.83 46.37 -18.54 64.91c9.27,74.19 27.82,55.65 -46.37,55.65l-55.65 157.65c27.83,129.84 27.83,129.84 111.29,213.3l46.37 -9.27c222.57,18.55 37.1,18.55 111.29,-46.37 -37.1,-259.67 -55.65,-287.49 -18.55,-528.61l-102.01 46.37z"/>
  <path class="fil3" d="M20185.94 7142.72l-46.37 278.21c194.75,-111.28 46.37,9.28 139.1,-204.02 55.65,-129.84 -18.54,-27.82 64.92,-83.47 46.37,-157.65 102.01,-259.67 102.01,-454.42 -176.2,83.47 -250.39,241.12 -259.66,463.7z"/>
  <path class="fil4" d="M6850.08 5770.18c-111.28,0 -92.74,18.55 -139.11,55.64 74.19,-27.82 74.19,-27.82 139.11,-55.64zm-111.28 129.84l-46.37 27.82 -37.1 37.09 -27.82 46.37 -27.82 46.37 -18.55 55.65 -55.64 64.91c92.73,0 74.19,27.82 55.64,-64.91l18.55 -55.65 27.82 -46.37 27.82 -46.37 37.1 -37.09 46.37 -27.82 46.36 -27.83c166.93,-55.64 46.37,-9.27 92.74,-74.19l102.02 -9.27c9.27,-176.2 -27.83,-148.38 120.56,-194.75l-74.19 46.37c-148.39,83.46 0,-9.28 -46.37,27.82 0,0 -9.28,9.27 -18.55,9.27l-92.74 92.74 9.27 27.82c-83.46,27.82 -64.91,27.82 -92.74,74.19l-46.36 27.83zm398.77 -222.58l37.1 9.28c0,-9.28 9.27,-37.1 18.55,-27.83l74.19 -120.56c27.82,213.3 0,148.39 129.83,213.3 -18.55,-102.01 -37.09,-64.91 55.64,-92.74l74.2 46.37c0,-92.73 18.54,-74.19 -74.2,-46.37l-157.65 -148.38c-9.28,-18.55 -27.82,-18.55 -37.1,-27.82 129.84,55.64 166.93,55.64 306.04,83.47l157.66 9.27 -389.51 -55.64 92.74 -74.19c37.1,-148.39 -46.37,18.54 27.82,-83.47 27.83,-37.1 46.37,-37.1 74.2,-74.19 74.19,-83.47 83.46,-102.01 139.1,-194.75 -120.56,64.91 -74.19,83.46 -194.75,213.3 -148.38,157.65 -9.27,64.91 -166.93,157.65 -9.27,0 -37.09,18.55 -46.37,9.28 -9.27,-9.28 -27.82,9.27 -37.09,9.27 46.37,-120.56 111.28,-222.57 194.75,-315.31l-27.82 0c-111.29,139.11 -18.55,204.02 -194.75,268.94l9.27 -27.82c-120.56,129.83 37.1,18.55 -102.01,64.92 0,0 -83.47,-9.28 -102.02,-9.28 37.1,64.92 0,18.55 9.28,102.02l-102.01 37.09c194.75,-55.64 83.46,9.28 296.76,-83.46l-55.64 120.56c0,9.27 -9.28,18.54 -9.28,37.09z"/>
  <path class="fil4" d="M16875.16 6224.6c-74.19,55.65 -46.37,18.55 -120.56,46.37 -46.37,-157.65 -92.74,-213.3 -204.03,-278.22l139.11 343.14c-9.28,0 74.19,-27.82 83.46,-27.82 111.29,-55.65 37.1,-18.55 102.02,-83.47z"/>
  <path class="fil5" d="M4179.29 19496.64l0 0 1437.48 3722.59 -293.83 0 -345.75 -894.67 -1901.45 0 -344.53 894.67 -38.22 0 1437.48 -3722.59 48.82 0zm-1089.31 2792.47l0 0 1873.89 0 -926.77 -2397.32 -10.66 -27.61 -10.6 27.61 -925.86 2397.32zm6037.68 -1600.35l0 0c83.74,40.93 149.51,99.77 197.75,176.82 48.23,77.01 72.5,161.33 72.5,253.2l0 2105 -273.54 0 0 -2166.26c0,-38.51 -7.89,-88.54 -23.97,-150.72 -16.08,-61.85 -48.24,-120.06 -97.06,-174.35 -48.53,-54.58 -121.9,-89.79 -220.16,-105.87 -4.27,-0.58 -8.19,-1.21 -11.53,-1.79 -1.21,0 -2.13,0 -2.71,0 -1.84,0 -3.68,-0.29 -5.48,-0.92 -59.76,-5.77 -114.05,-6.06 -162.53,-0.92 -122.53,15.49 -230.48,47.6 -324.2,96.13 -93.71,48.53 -170.13,98.56 -229.27,150.14 -63.39,53.37 -121.61,110.08 -174.11,170.42 -52.74,60.35 -102.77,122.24 -150.08,185.01l0 1999.13 -274.75 0 0 -2166.26c0.58,-38.51 -6.98,-88.54 -23.05,-150.72 -16.08,-61.85 -48.24,-120.06 -96.77,-174.35 -48.53,-54.58 -121.9,-89.79 -220.46,-105.87 -3.97,-0.58 -7.89,-1.21 -11.52,-1.79 -1.21,0 -2.13,0 -2.72,0 -1.55,0 -3.34,-0.29 -5.18,-0.92 -59.76,-5.77 -114.34,-6.06 -163.45,-0.92 -122.82,15.49 -230.78,47.6 -324.49,96.13 -93.42,48.53 -169.85,98.56 -228.98,150.14 -62.77,52.74 -120.4,109.16 -172.85,169.21 -52.45,60.06 -102.19,121.32 -148.92,183.46l0 2001.89 -273.54 0 0 -2639.97 273.54 0 0 579.58c43.97,-57.01 90.37,-112.51 139.19,-166.8 48.86,-54.29 102.23,-105.87 160.16,-154.98 60.92,-52.79 139.77,-104.03 236.53,-154.06 96.43,-50.03 208.35,-83.4 335.73,-100.06 139.19,-13.07 288.69,9.4 447.93,66.69 27.56,10.03 53.95,20.93 78.85,32.74 1.21,0.63 2.42,1.26 3.63,1.84 83.98,40.93 150.43,99.77 198.62,176.82 48.23,77.01 72.5,161.33 72.5,253.2l0 47.03c43.68,-56.72 90.08,-112.8 139.48,-167.72 49.15,-55.21 103.11,-107.37 161.66,-156.48 60.93,-52.79 140.11,-104.03 236.83,-154.06 96.76,-50.03 208.64,-83.4 335.43,-100.06 139.82,-13.07 289.32,9.4 448.52,66.69 27.31,10.03 53.71,20.93 79.18,32.74 1.21,0.63 2.42,1.26 3.29,1.84zm1896.07 63.11l0 0c67.61,56.66 119.19,121.27 154.98,193.77 35.79,72.16 53.66,148.3 53.66,228.35l0 2049.79 -273.53 0 0 -220.51c-78.85,71.88 -166.8,126.51 -263.57,164.09 -96.71,37.58 -198.32,56.42 -304.14,56.42 -112.51,0 -219.88,-20.92 -322.07,-63.11 -102.23,-42.13 -193.48,-103.1 -273.24,-183.16 -80.06,-80.35 -141.32,-171.93 -183.51,-274.17 -42.42,-102.19 -63.68,-209.22 -63.68,-321.14 0,-112.51 21.26,-219.88 63.68,-322.07 42.19,-102.19 103.45,-193.19 183.51,-273.25 79.76,-79.76 171.01,-141.03 273.24,-183.45 102.19,-42.18 209.56,-63.4 322.07,-63.4 105.82,0 207.43,18.79 304.14,56.42 96.77,37.59 184.72,92.17 263.57,163.75l0 -680.5c0,-37.92 -6.69,-87.66 -20.01,-149.22 -13.36,-61.55 -39.47,-121.03 -78.55,-177.74 -39.13,-56.71 -97.98,-97.64 -175.9,-122.48 -51.58,-10.66 -105.24,-16.08 -161.03,-16.08 -16.08,0 -31.53,0.29 -47.03,0.87l-57.63 6.39c-65.77,16.08 -124.62,49.11 -176.2,99.77 -51.24,50.66 -94.92,106.16 -130.37,166.22 -35.5,60 -62.48,112.5 -80.98,157.35 -18.5,44.6 -27.6,67.03 -27.6,67.03l-150.14 -133.43c34.92,-85.19 91.58,-160.74 169.85,-226.51 67.61,-56.13 144.37,-99.19 230.19,-128.92 85.82,-29.4 175.56,-44.27 269.91,-44.27 159.82,0 305.06,41.55 435.49,124.32 22.42,15.5 43.97,31.58 64.89,48.87zm-64.89 2202.59l0 0 0 -1144.52c-116.77,-115.56 -258.38,-189.56 -424.89,-222.01 -5.13,-0.58 -10.31,-1.5 -14.87,-2.71 -42.13,-6.35 -84.61,-9.69 -127.95,-9.69 -19.71,0 -38.55,0.58 -57.05,1.79 -128.59,24.27 -239.54,101.32 -332.96,231.12 -54.59,76.71 -96.43,164.37 -125.25,262.93 -29.1,98.26 -43.68,201.37 -43.68,309.04 0,108.24 14.58,211.64 43.68,309.61 28.82,97.93 70.66,185.88 125.25,263.52 100.68,138.61 220.45,216.53 359.64,234.45 10.03,0 20.34,0 30.37,0 34.24,0 68.24,-2.13 101.27,-6.05 6.97,-0.63 13.95,-1.55 20.34,-2.76 175.27,-29.4 323.86,-104.32 446.1,-224.72zm3784.43 -2265.7l0 0c83.74,40.93 149.51,99.77 197.74,176.82 48.24,77.01 72.51,161.33 72.51,253.2l0 2105 -273.54 0 0 -2166.26c0,-38.51 -7.9,-88.54 -23.97,-150.72 -16.08,-61.85 -48.24,-120.06 -97.06,-174.35 -48.53,-54.58 -121.9,-89.79 -220.17,-105.87 -4.26,-0.58 -8.18,-1.21 -11.52,-1.79 -1.21,0 -2.13,0 -2.72,0 -1.84,0 -3.68,-0.29 -5.47,-0.92 -59.76,-5.77 -114.05,-6.06 -162.53,-0.92 -122.53,15.49 -230.48,47.6 -324.2,96.13 -93.71,48.53 -170.14,98.56 -229.27,150.14 -63.4,53.37 -121.61,110.08 -174.11,170.42 -52.74,60.35 -102.77,122.24 -150.09,185.01l0 1999.13 -274.74 0 0 -2166.26c0.58,-38.51 -6.98,-88.54 -23.06,-150.72 -16.08,-61.85 -48.24,-120.06 -96.76,-174.35 -48.53,-54.58 -121.9,-89.79 -220.46,-105.87 -3.97,-0.58 -7.89,-1.21 -11.53,-1.79 -1.21,0 -2.13,0 -2.71,0 -1.55,0 -3.34,-0.29 -5.18,-0.92 -59.76,-5.77 -114.35,-6.06 -163.45,-0.92 -122.83,15.49 -230.78,47.6 -324.49,96.13 -93.42,48.53 -169.85,98.56 -228.98,150.14 -62.77,52.74 -120.4,109.16 -172.85,169.21 -52.45,60.06 -102.19,121.32 -148.93,183.46l0 2001.89 -273.54 0 0 -2639.97 273.54 0 0 579.58c43.98,-57.01 90.37,-112.51 139.19,-166.8 48.87,-54.29 102.24,-105.87 160.16,-154.98 60.93,-52.79 139.78,-104.03 236.54,-154.06 96.43,-50.03 208.35,-83.4 335.72,-100.06 139.19,-13.07 288.7,9.4 447.94,66.69 27.56,10.03 53.95,20.93 78.85,32.74 1.21,0.63 2.42,1.26 3.63,1.84 83.98,40.93 150.42,99.77 198.61,176.82 48.24,77.01 72.5,161.33 72.5,253.2l0 47.03c43.69,-56.72 90.08,-112.8 139.48,-167.72 49.16,-55.21 103.11,-107.37 161.67,-156.48 60.92,-52.79 140.11,-104.03 236.82,-154.06 96.77,-50.03 208.64,-83.4 335.44,-100.06 139.82,-13.07 289.32,9.4 448.51,66.69 27.32,10.03 53.71,20.93 79.19,32.74 1.21,0.63 2.42,1.26 3.29,1.84zm2681.52 756.06l0 0 -1910.26 0c-38.55,148.29 -57.92,303.27 -57.92,464.89 0,172.26 22.13,336.64 66.4,493.41 43.97,156.82 107.95,296.59 191.35,419.75 145.87,210.14 318.43,333.59 517.97,369.67 33.7,3.63 68.24,5.43 103.11,5.43 34.29,0 68.87,-1.8 103.11,-5.43 7.6,-1.21 15.78,-2.13 23.97,-2.76 190.14,-26.68 360.57,-100.06 511.33,-219.83 150.72,-119.81 269.57,-272.66 356.65,-457.96l40 0c-54.58,121.32 -125.24,231.99 -212.27,332.38 -107.37,121.9 -230.48,216.54 -369.67,284.15 -145.3,70.08 -296.3,104.95 -453.12,104.95 -157.69,0 -308.7,-34.87 -453.07,-104.95 -139.19,-67.61 -262.6,-162.25 -369.68,-284.15 -110.08,-126.16 -194.4,-269.61 -252.32,-430.01 -57.93,-160.46 -87.03,-329.33 -87.03,-506.45 0,-176.53 29.1,-345.11 87.03,-505.57 57.92,-160.4 142.24,-303.85 252.32,-430.01 107.08,-122.24 230.49,-216.83 369.68,-284.49 144.37,-69.74 295.38,-104.61 453.07,-104.61 156.82,0 307.82,34.87 453.12,104.61 139.19,67.66 262.3,162.25 369.67,284.49 111.87,128.29 196.82,274.16 254.74,436.99 0.59,2.42 1.8,6.05 3.35,10.6 1.5,4.9 3,9.74 4.84,14.87 1.79,5.18 3,8.48 3.63,10.03zm-1089.35 -826.09l0 0c-21.51,0 -42.72,0.87 -63.98,2.71 -215.62,24.85 -401.49,149.51 -557.1,373.94 -82.77,121.9 -146.17,259.88 -190.14,413.94l1621.56 0c-43.97,-154.06 -107.03,-292.04 -189.22,-413.94 -155.9,-224.43 -341.48,-349.09 -557.1,-373.94 -21.55,-1.84 -42.76,-2.71 -64.02,-2.71zm2925.66 70.03l0 0c83.98,40.93 150.37,99.77 198.61,176.82 48.24,77.01 72.5,161.33 72.5,253.2l0 2105 -274.79 0 0 -2166.26c0,-38.51 -7.85,-88.54 -23.35,-150.72 -15.74,-61.85 -47.9,-120.06 -96.42,-174.35 -48.53,-54.58 -121.9,-89.79 -220.46,-105.87 -3.97,-0.58 -8.19,-1.21 -12.45,-1.79 -0.63,0 -1.5,0 -2.71,0 -0.92,0 -2.47,-0.29 -4.26,-0.92 -59.77,-5.77 -114.35,-6.06 -163.46,-0.92 -122.82,15.49 -230.82,47.6 -324.48,96.13 -93.72,48.53 -170.14,98.56 -229.27,150.14 -62.82,52.74 -120.11,109.16 -172.56,169.21 -52.5,60.06 -102.24,121.32 -148.93,183.46l0 2001.89 -274.46 0 0 -2640.55 274.46 0 0 580.16c43.98,-57.01 90.08,-112.51 138.9,-166.8 48.82,-54.29 102.53,-105.87 160.45,-154.98 60.93,-52.79 139.77,-104.03 236.54,-154.06 96.42,-50.03 208.35,-83.4 335.72,-100.06 139.19,-13.07 288.41,9.4 447.89,66.69 27.61,10.03 54,20.93 78.85,32.74 1.21,0.63 2.42,1.26 3.68,1.84zm893.74 -107.37l0 0 0 2288.75c0.58,29.44 5.13,67.37 13.61,113.13 8.81,45.82 25.81,88.58 51.29,127.67 25.47,39.13 63.68,63.1 114.29,71.87 17.92,2.42 35.79,3.68 54.29,3.68 7.61,0 15.16,-0.34 22.14,-0.92 26.68,-2.42 50.03,-10.95 69.74,-25.82 20.05,-14.82 36.42,-31.52 49.45,-49.39 13.02,-17.92 22.76,-34 29.44,-47.95 6.35,-13.95 9.69,-20.92 9.69,-20.92l154.64 53.37c-45.19,39.76 -96.14,70.66 -153.43,93.13 -57,22.71 -117.69,33.95 -181.67,33.95 -83.97,0 -161.95,-19.08 -233.48,-57 -81.32,-42.77 -146.5,-102.53 -195.61,-179.54 -49.16,-76.71 -75.22,-163.74 -78.27,-261.14 0,-11.81 0,-124.03 0,-336.3 0,-212.27 0,-457.91 0,-736.63 0,-278.72 0,-526.45 0,-743.9 0,-217.46 0,-326.04 0,-326.04l-396.06 0 0 -35.79 396.06 0 0 -591.63 273.88 0 0 591.63 856.4 0 0 35.79 -856.4 0zm1978.5 170.48l0 0c67.61,56.66 119.19,121.27 154.98,193.77 35.79,72.16 53.66,148.3 53.66,228.35l0 2049.79 -273.54 0 0 -220.51c-78.85,71.88 -166.8,126.51 -263.56,164.09 -96.72,37.58 -198.33,56.42 -304.15,56.42 -112.5,0 -219.87,-20.92 -322.06,-63.11 -102.24,-42.13 -193.48,-103.1 -273.25,-183.16 -80.06,-80.35 -141.32,-171.93 -183.5,-274.17 -42.43,-102.19 -63.69,-209.22 -63.69,-321.14 0,-112.51 21.26,-219.88 63.69,-322.07 42.18,-102.19 103.44,-193.19 183.5,-273.25 79.77,-79.76 171.01,-141.03 273.25,-183.45 102.19,-42.18 209.56,-63.4 322.06,-63.4 105.82,0 207.43,18.79 304.15,56.42 96.76,37.59 184.71,92.17 263.56,163.75l0 -680.5c0,-37.92 -6.68,-87.66 -20,-149.22 -13.37,-61.55 -39.47,-121.03 -78.56,-177.74 -39.13,-56.71 -97.97,-97.64 -175.9,-122.48 -51.58,-10.66 -105.24,-16.08 -161.03,-16.08 -16.08,0 -31.53,0.29 -47.03,0.87l-57.63 6.39c-65.77,16.08 -124.61,49.11 -176.19,99.77 -51.24,50.66 -94.93,106.16 -130.38,166.22 -35.5,60 -62.47,112.5 -80.97,157.35 -18.5,44.6 -27.61,67.03 -27.61,67.03l-150.13 -133.43c34.91,-85.19 91.58,-160.74 169.84,-226.51 67.61,-56.13 144.37,-99.19 230.19,-128.92 85.82,-29.4 175.57,-44.27 269.91,-44.27 159.82,0 305.07,41.55 435.49,124.32 22.42,15.5 43.98,31.58 64.9,48.87zm-64.9 2202.59l0 0 0 -1144.52c-116.77,-115.56 -258.38,-189.56 -424.88,-222.01 -5.14,-0.58 -10.32,-1.5 -14.87,-2.71 -42.14,-6.35 -84.61,-9.69 -127.96,-9.69 -19.71,0 -38.55,0.58 -57.05,1.79 -128.58,24.27 -239.54,101.32 -332.96,231.12 -54.58,76.71 -96.43,164.37 -125.24,262.93 -29.11,98.26 -43.69,201.37 -43.69,309.04 0,108.24 14.58,211.64 43.69,309.61 28.81,97.93 70.66,185.88 125.24,263.52 100.69,138.61 220.46,216.53 359.65,234.45 10.02,0 20.34,0 30.36,0 34.24,0 68.24,-2.13 101.27,-6.05 6.98,-0.63 13.95,-1.55 20.34,-2.76 175.27,-29.4 323.86,-104.32 446.1,-224.72zm575.31 -19.72l0 0c38.5,0 71.87,14.24 99.77,42.48 27.6,28.19 41.55,61.26 41.55,99.77 0,38.5 -13.95,71.87 -41.55,99.47 -27.9,27.9 -61.27,41.85 -99.77,41.85 -39.76,0 -73.08,-14.24 -100.69,-43.06 -27.6,-28.81 -40.97,-63.39 -40.34,-104.32 2.13,-38.55 17,-71 43.97,-97.05 26.98,-26.11 59.14,-39.14 97.06,-39.14z"/>
 </g>
</svg>
